<svg xmlns="http://www.w3.org/2000/svg" viewBox="0 0 800 1000">
  <defs>
    <linearGradient id="bg5" x1="0" y1="0" x2="1" y2="1">
      <stop offset="0%" stop-color="#2a1c19"/>
      <stop offset="100%" stop-color="#0e1014"/>
    </linearGradient>
  </defs>
  <rect width="800" height="1000" rx="48" fill="url(#bg5)"/>
  <g transform="translate(400 520)">
    <ellipse cx="0" cy="60" rx="42" ry="170" fill="#5f3d2f"/>
    <ellipse cx="0" cy="-80" rx="26" ry="76" fill="#3d261d"/>
    <path d="M-20 -160 C-40 -250, -70 -330, -110 -380" stroke="#cfb89a" stroke-width="7" fill="none" stroke-linecap="round"/>
    <path d="M20 -160 C40 -250, 70 -330, 110 -380" stroke="#cfb89a" stroke-width="7" fill="none" stroke-linecap="round"/>
    <path d="M-30 -30 C-180 -220, -325 -255, -355 -120 C-380 0, -270 80, -110 90 C-72 92, -48 54, -30 -30" fill="#8a573a" stroke="#e0c29a" stroke-width="7"/>
    <path d="M30 -30 C180 -220, 325 -255, 355 -120 C380 0, 270 80, 110 90 C72 92, 48 54, 30 -30" fill="#8a573a" stroke="#e0c29a" stroke-width="7"/>
    <path d="M-30 90 C-170 20, -300 80, -315 215 C-325 320, -205 365, -48 285 C-8 263, 0 210, -30 90" fill="#af7747" stroke="#e0c29a" stroke-width="7"/>
    <path d="M30 90 C170 20, 300 80, 315 215 C325 320, 205 365, 48 285 C8 263, 0 210, 30 90" fill="#af7747" stroke="#e0c29a" stroke-width="7"/>
    <circle cx="-235" cy="-70" r="28" fill="#e7c07a" opacity="0.7"/>
    <circle cx="235" cy="-70" r="28" fill="#e7c07a" opacity="0.7"/>
    <circle cx="-190" cy="205" r="24" fill="#5b2c20" opacity="0.45"/>
    <circle cx="190" cy="205" r="24" fill="#5b2c20" opacity="0.45"/>
  </g>
</svg>
