<svg xmlns="http://www.w3.org/2000/svg" viewBox="0 0 800 1000">
  <defs>
    <linearGradient id="bg4" x1="0" y1="0" x2="1" y2="1">
      <stop offset="0%" stop-color="#191919"/>
      <stop offset="100%" stop-color="#0d1014"/>
    </linearGradient>
  </defs>
  <rect width="800" height="1000" rx="48" fill="url(#bg4)"/>
  <ellipse cx="400" cy="530" rx="182" ry="315" fill="#f2eee3" stroke="#d6d1c5" stroke-width="8"/>
  <ellipse cx="400" cy="360" rx="110" ry="132" fill="#191919" stroke="#f2eee3" stroke-width="8"/>
  <path d="M245 360 C320 392, 480 392, 555 360" stroke="#191919" stroke-width="24" fill="none"/>
  <path d="M250 510 C330 548, 470 548, 550 510" stroke="#191919" stroke-width="26" fill="none"/>
  <path d="M270 680 C332 716, 468 716, 530 680" stroke="#191919" stroke-width="22" fill="none"/>
  <path d="M400 220 L400 842" stroke="#c9c2b6" stroke-width="6"/>
  <g stroke="#b7b1a6" stroke-width="12" stroke-linecap="round">
    <path d="M262 435 L120 335"/>
    <path d="M255 525 L90 486"/>
    <path d="M270 638 L108 748"/>
    <path d="M538 435 L680 335"/>
    <path d="M545 525 L710 486"/>
    <path d="M530 638 L692 748"/>
  </g>
  <g stroke="#f2eee3" stroke-width="7" stroke-linecap="round">
    <path d="M365 196 L340 124"/>
    <path d="M435 196 L460 124"/>
  </g>
</svg>
