<svg xmlns="http://www.w3.org/2000/svg" viewBox="0 0 800 1000">
  <defs>
    <linearGradient id="bg2" x1="0" y1="0" x2="1" y2="1">
      <stop offset="0%" stop-color="#1c1b28"/>
      <stop offset="100%" stop-color="#0e1118"/>
    </linearGradient>
    <linearGradient id="shell2" x1="0" y1="0" x2="0" y2="1">
      <stop offset="0%" stop-color="#d2b77a"/>
      <stop offset="100%" stop-color="#77623a"/>
    </linearGradient>
  </defs>
  <rect width="800" height="1000" rx="48" fill="url(#bg2)"/>
  <ellipse cx="400" cy="530" rx="180" ry="320" fill="url(#shell2)" stroke="#f1dfb2" stroke-width="8"/>
  <ellipse cx="400" cy="370" rx="115" ry="140" fill="#1d1610" stroke="#f1dfb2" stroke-width="8"/>
  <path d="M400 180 C400 120, 402 90, 408 55 C415 25, 438 15, 460 24 C445 48, 440 74, 444 106 C450 160, 460 205, 478 248" fill="none" stroke="#f1dfb2" stroke-width="24" stroke-linecap="round"/>
  <path d="M394 182 C394 112, 386 72, 362 40 C345 18, 317 14, 296 25 C320 42, 334 72, 336 106 C338 155, 328 204, 308 254" fill="none" stroke="#f1dfb2" stroke-width="20" stroke-linecap="round"/>
  <path d="M382 210 L418 210" stroke="#f1dfb2" stroke-width="12" stroke-linecap="round"/>
  <g stroke="#bfa678" stroke-width="12" stroke-linecap="round">
    <path d="M260 430 L120 340"/>
    <path d="M255 540 L92 520"/>
    <path d="M270 655 L110 760"/>
    <path d="M540 430 L680 340"/>
    <path d="M545 540 L708 520"/>
    <path d="M530 655 L690 760"/>
  </g>
  <ellipse cx="400" cy="615" rx="136" ry="176" fill="#8a7043" opacity="0.5"/>
</svg>
