<svg xmlns="http://www.w3.org/2000/svg" viewBox="0 0 800 1000">
  <defs>
    <linearGradient id="bg6" x1="0" y1="0" x2="1" y2="1">
      <stop offset="0%" stop-color="#231920"/>
      <stop offset="100%" stop-color="#0f1218"/>
    </linearGradient>
  </defs>
  <rect width="800" height="1000" rx="48" fill="url(#bg6)"/>
  <g transform="translate(400 520)">
    <ellipse cx="0" cy="-90" rx="60" ry="90" fill="#ffe7f1" stroke="#ffd7e7" stroke-width="6"/>
    <ellipse cx="0" cy="80" rx="48" ry="180" fill="#ffd9e8" stroke="#f7c0d8" stroke-width="6"/>
    <circle cx="-16" cy="-110" r="8" fill="#3b2630"/>
    <circle cx="16" cy="-110" r="8" fill="#3b2630"/>
    <path d="M-25 -165 C-75 -245, -130 -275, -190 -295" stroke="#f6c6dc" stroke-width="10" fill="none" stroke-linecap="round"/>
    <path d="M25 -165 C75 -245, 130 -275, 190 -295" stroke="#f6c6dc" stroke-width="10" fill="none" stroke-linecap="round"/>
    <path d="M-40 -10 C-140 -70, -240 -60, -295 15 C-220 35, -145 45, -40 40" fill="#ffd4e4" stroke="#f7c0d8" stroke-width="7"/>
    <path d="M40 -10 C140 -70, 240 -60, 295 15 C220 35, 145 45, 40 40" fill="#ffd4e4" stroke="#f7c0d8" stroke-width="7"/>
    <path d="M-35 180 C-130 140, -205 170, -260 260" stroke="#f6c6dc" stroke-width="12" fill="none" stroke-linecap="round"/>
    <path d="M35 180 C130 140, 205 170, 260 260" stroke="#f6c6dc" stroke-width="12" fill="none" stroke-linecap="round"/>
    <path d="M-20 250 C-85 310, -115 370, -120 430" stroke="#f4b7d4" stroke-width="10" fill="none" stroke-linecap="round"/>
    <path d="M20 250 C85 310, 115 370, 120 430" stroke="#f4b7d4" stroke-width="10" fill="none" stroke-linecap="round"/>
  </g>
</svg>
