<svg xmlns="http://www.w3.org/2000/svg" viewBox="0 0 800 1000">
  <defs>
    <linearGradient id="bg1" x1="0" y1="0" x2="1" y2="1">
      <stop offset="0%" stop-color="#1c2330"/>
      <stop offset="100%" stop-color="#0f141d"/>
    </linearGradient>
    <linearGradient id="shell1" x1="0" y1="0" x2="0" y2="1">
      <stop offset="0%" stop-color="#7a5231"/>
      <stop offset="100%" stop-color="#2d1c13"/>
    </linearGradient>
  </defs>
  <rect width="800" height="1000" rx="48" fill="url(#bg1)"/>
  <ellipse cx="400" cy="500" rx="180" ry="320" fill="url(#shell1)" stroke="#d0aa73" stroke-width="8"/>
  <ellipse cx="400" cy="360" rx="110" ry="130" fill="#22150f" stroke="#d0aa73" stroke-width="7"/>
  <ellipse cx="400" cy="640" rx="140" ry="180" fill="#2b1b13" stroke="#d0aa73" stroke-width="6"/>
  <path d="M355 250 C300 160, 260 110, 220 80 C195 63, 170 60, 150 70 C175 90, 210 115, 225 145 C245 184, 235 220, 225 255" fill="none" stroke="#d0aa73" stroke-width="18" stroke-linecap="round"/>
  <path d="M445 250 C500 160, 540 110, 580 80 C605 63, 630 60, 650 70 C625 90, 590 115, 575 145 C555 184, 565 220, 575 255" fill="none" stroke="#d0aa73" stroke-width="18" stroke-linecap="round"/>
  <path d="M352 246 C295 210, 250 195, 210 198" fill="none" stroke="#d0aa73" stroke-width="14" stroke-linecap="round"/>
  <path d="M448 246 C505 210, 550 195, 590 198" fill="none" stroke="#d0aa73" stroke-width="14" stroke-linecap="round"/>
  <g stroke="#a68a63" stroke-width="12" stroke-linecap="round">
    <path d="M270 430 L115 320"/>
    <path d="M275 510 L95 470"/>
    <path d="M278 620 L110 700"/>
    <path d="M530 430 L685 320"/>
    <path d="M525 510 L705 470"/>
    <path d="M522 620 L690 700"/>
  </g>
  <g stroke="#d8bb85" stroke-width="8" stroke-linecap="round">
    <path d="M365 190 L335 120"/>
    <path d="M435 190 L465 120"/>
  </g>
</svg>
